<svg width="160" height="27" viewBox="0 0 160 27" fill="none" xmlns="http://www.w3.org/2000/svg">
<path d="M53.9401 23.0743H47.1353C45.7163 23.0743 44.5113 22.5792 43.5201 21.5869C42.5268 20.5969 42.0312 19.3909 42.0312 17.9755V11.5312C42.0312 10.227 42.5072 8.9556 43.4044 8.00694C44.4174 6.93834 45.6617 6.40186 47.1353 6.40186H59.0441V9.27618L55.6669 14.7239H55.6429V9.77559H47.1353C46.6682 9.77559 46.2686 9.94134 45.9346 10.275C45.6006 10.6087 45.4347 11.0078 45.4347 11.4745V17.9733C45.4347 18.44 45.6006 18.8391 45.9346 19.1728C46.2686 19.5064 46.6682 19.6722 47.1353 19.6722H53.9401C54.4072 19.6722 54.8067 19.5064 55.1408 19.1728C55.4748 18.8391 55.6407 18.44 55.6407 17.9733H59.0441C59.0441 19.3887 58.5486 20.5925 57.5553 21.5848C56.562 22.5792 55.3569 23.0743 53.9401 23.0743Z" fill="white"/>
<path d="M72.9557 23.0743H66.151C64.7319 23.0743 63.5269 22.5792 62.5357 21.5869C61.5424 20.5969 61.0469 19.3909 61.0469 17.9755V11.5312C61.0469 10.227 61.5228 8.9556 62.42 8.00694C63.433 6.93834 64.6774 6.40186 66.151 6.40186H72.9557C74.3725 6.40186 75.5776 6.8969 76.5709 7.88918C77.562 8.88146 78.0598 10.0765 78.0598 11.4766V17.9755C78.0598 19.3909 77.5642 20.5947 76.5709 21.5869C75.5776 22.5792 74.3725 23.0743 72.9557 23.0743ZM72.9557 19.6744C73.4229 19.6744 73.8224 19.5086 74.1564 19.175C74.4904 18.8413 74.6563 18.4422 74.6563 17.9755V11.4766C74.6563 11.0099 74.4904 10.6108 74.1564 10.2772C73.8224 9.94351 73.4229 9.77778 72.9557 9.77778H66.151C65.6838 9.77778 65.2843 9.94351 64.9503 10.2772C64.6162 10.6108 64.4503 11.0099 64.4503 11.4766V17.9755C64.4503 18.4422 64.6162 18.8413 64.9503 19.175C65.2843 19.5086 65.6838 19.6744 66.151 19.6744H72.9557Z" fill="white"/>
<path d="M95.5215 23.0745L83.462 13.4527V23.0745H80.0586V6.4043L92.0918 16.0021L92.118 6.4043H95.5215V23.0745Z" fill="white"/>
<path d="M107.732 23.0745H104.328V9.77803H97.5234V6.4043H114.536V9.77803H107.732V23.0745Z" fill="white"/>
<path d="M119.943 23.0745H116.539V6.4043H119.943V23.0745Z" fill="white"/>
<path d="M131.85 23.0745L121.441 6.4043H125.445L131.85 16.652L138.229 6.4043H142.233L131.85 23.0745Z" fill="white"/>
<path d="M159.997 23.0745H142.984V6.4043H159.997V9.77803H146.386V13.0275H156.594V16.4274H146.386V19.6768H159.997V23.0745Z" fill="white"/>
<path d="M17.8265 5.51402L20.0685 6.80725C20.4047 7.00134 20.8173 7.00134 21.1535 6.80725L23.0681 5.70375C23.7907 5.28721 23.7907 4.2426 23.0681 3.82606L21.9111 3.15873L18.3679 1.1153C18.0317 0.921203 17.6191 0.921203 17.2829 1.1153L1.62789 10.1439C0.905286 10.5605 0.905286 11.6051 1.62789 12.0216L17.2807 21.0502C17.6169 21.2443 18.0295 21.2443 18.3657 21.0502L34.0207 12.0216C34.7433 11.6051 34.7433 10.5605 34.0207 10.1439L29.3227 7.43315C28.9865 7.23906 28.5739 7.23906 28.2377 7.43315L26.3231 8.53665C25.6005 8.95319 25.6005 9.9978 26.3231 10.4143L27.478 11.0817L17.8243 16.6493L8.17063 11.0817L17.8265 5.51402Z" fill="white"/>
<path d="M35.65 14.7371V16.9463C35.65 17.3345 35.4426 17.6921 35.1086 17.884L32.5238 19.3757L19.9841 26.6073C19.2615 27.0239 18.3555 26.5027 18.3555 25.6696V23.4604C18.3555 23.0722 18.5629 22.7146 18.8991 22.5226L34.0214 13.7994C34.7462 13.3828 35.65 13.904 35.65 14.7371Z" fill="#1FCCD2"/>
<path d="M17.2858 23.4035V25.689C17.2858 26.5243 16.3776 27.0455 15.655 26.6268L0.539225 17.8381C0.205211 17.644 0 17.2863 0 16.9003V14.6846C0 13.8493 0.903801 13.3281 1.62859 13.7468L13.8365 20.7866L16.7465 22.4658C17.0784 22.6577 17.2858 23.0154 17.2858 23.4035Z" fill="#1FCCD2"/>
<path d="M17.825 8.72412L13.7383 11.0816L17.825 13.4369L21.9096 11.0816L17.825 8.72412Z" fill="#1FCCD2"/>
<path d="M71.3235 12.9722H67.7891V16.5029H71.3235V12.9722Z" fill="#1FCCD2"/>
<path d="M120.011 1.26123H116.477V4.79199H120.011V1.26123Z" fill="#1FCCD2"/>
</svg>
