<svg width="108" height="38" viewBox="0 0 108 38" fill="none" xmlns="http://www.w3.org/2000/svg">
<g filter="url(#filter0_dd_100_7004)">
<rect width="105" height="36" transform="translate(1.98438 1)" fill="#09090B"/>
<g filter="url(#filter1_d_100_7004)">
<path d="M17.9886 24V13.8182H19.8331V22.4538H24.3175V24H17.9886ZM25.9183 24V13.8182H32.5405V15.3643H27.7628V18.1286H32.1974V19.6747H27.7628V22.4538H32.5803V24H25.9183ZM33.9748 15.3643V13.8182H42.0984V15.3643H38.9513V24H37.1218V15.3643H33.9748ZM45.1112 13.8182V14.8324C45.1112 15.1241 45.0548 15.4273 44.9421 15.7422C44.8327 16.0537 44.6819 16.352 44.4897 16.6371C44.2975 16.9188 44.0787 17.1607 43.8335 17.3629L42.9982 16.821C43.1805 16.5459 43.3396 16.2493 43.4755 15.9311C43.6114 15.6096 43.6793 15.2467 43.6793 14.8423V13.8182H45.1112ZM52.1919 16.6172C52.1455 16.183 51.95 15.8449 51.6053 15.603C51.2639 15.361 50.8198 15.2401 50.2729 15.2401C49.8884 15.2401 49.5587 15.2981 49.2836 15.4141C49.0085 15.5301 48.798 15.6875 48.6522 15.8864C48.5063 16.0852 48.4318 16.3123 48.4284 16.5675C48.4284 16.7796 48.4765 16.9635 48.5726 17.1193C48.6721 17.2751 48.8063 17.4077 48.9753 17.517C49.1444 17.6231 49.3316 17.7126 49.5371 17.7855C49.7426 17.8584 49.9498 17.9197 50.1586 17.9695L51.1131 18.2081C51.4976 18.2976 51.8671 18.4186 52.2218 18.571C52.5797 18.7235 52.8996 18.9157 53.1813 19.1477C53.4663 19.3797 53.6917 19.6598 53.8574 19.9879C54.0231 20.3161 54.106 20.7005 54.106 21.1413C54.106 21.7379 53.9535 22.2633 53.6486 22.7173C53.3437 23.1681 52.9029 23.5211 52.3262 23.7763C51.7528 24.0282 51.0584 24.1541 50.2431 24.1541C49.4509 24.1541 48.7632 24.0315 48.1799 23.7862C47.5998 23.541 47.1458 23.183 46.8176 22.7124C46.4928 22.2417 46.3172 21.6683 46.2907 20.9922H48.1053C48.1318 21.3468 48.2412 21.6418 48.4334 21.8771C48.6257 22.1125 48.8759 22.2881 49.1841 22.4041C49.4957 22.5201 49.8437 22.5781 50.2282 22.5781C50.6292 22.5781 50.9805 22.5185 51.2821 22.3991C51.5871 22.2765 51.8257 22.1075 51.998 21.892C52.1704 21.6733 52.2582 21.4181 52.2615 21.1264C52.2582 20.8613 52.1803 20.6425 52.0279 20.4702C51.8754 20.2945 51.6616 20.1487 51.3865 20.0327C51.1148 19.9134 50.7966 19.8073 50.432 19.7145L49.2736 19.4162C48.4351 19.2008 47.7722 18.8743 47.285 18.4368C46.8011 17.996 46.5591 17.411 46.5591 16.6818C46.5591 16.0819 46.7215 15.5566 47.0463 15.1058C47.3745 14.6551 47.8203 14.3054 48.3837 14.0568C48.9471 13.8049 49.5852 13.679 50.2978 13.679C51.0203 13.679 51.6534 13.8049 52.1969 14.0568C52.7438 14.3054 53.173 14.6518 53.4846 15.0959C53.7961 15.5367 53.9569 16.0438 53.9668 16.6172H52.1919ZM58.7756 15.3643V13.8182H66.8991V15.3643H63.7521V24H61.9226V15.3643H58.7756ZM68.5423 24H66.5735L70.158 13.8182H72.435L76.0245 24H74.0558L71.3363 15.9062H71.2567L68.5423 24ZM68.6069 20.0078H73.9762V21.4893H68.6069V20.0078ZM77.3656 24V13.8182H79.21V22.4538H83.6944V24H77.3656ZM85.2953 24V13.8182H87.1397V18.4964H87.264L91.2363 13.8182H93.4885L89.551 18.3871L93.5233 24H91.3059L88.2683 19.6349L87.1397 20.9673V24H85.2953Z" fill="#D6D6D6"/>
</g>
</g>
<defs>
<filter id="filter0_dd_100_7004" x="0.984375" y="0" width="107" height="38" filterUnits="userSpaceOnUse" color-interpolation-filters="sRGB">
<feFlood flood-opacity="0" result="BackgroundImageFix"/>
<feColorMatrix in="SourceAlpha" type="matrix" values="0 0 0 0 0 0 0 0 0 0 0 0 0 0 0 0 0 0 127 0" result="hardAlpha"/>
<feOffset/>
<feComposite in2="hardAlpha" operator="out"/>
<feColorMatrix type="matrix" values="0 0 0 0 1 0 0 0 0 1 0 0 0 0 1 0 0 0 1 0"/>
<feBlend mode="normal" in2="BackgroundImageFix" result="effect1_dropShadow_100_7004"/>
<feColorMatrix in="SourceAlpha" type="matrix" values="0 0 0 0 0 0 0 0 0 0 0 0 0 0 0 0 0 0 127 0" result="hardAlpha"/>
<feMorphology radius="1" operator="dilate" in="SourceAlpha" result="effect2_dropShadow_100_7004"/>
<feOffset/>
<feComposite in2="hardAlpha" operator="out"/>
<feColorMatrix type="matrix" values="0 0 0 0 1 0 0 0 0 1 0 0 0 0 1 0 0 0 0.1 0"/>
<feBlend mode="normal" in2="effect1_dropShadow_100_7004" result="effect2_dropShadow_100_7004"/>
<feBlend mode="normal" in="SourceGraphic" in2="effect2_dropShadow_100_7004" result="shape"/>
</filter>
<filter id="filter1_d_100_7004" x="17.9883" y="13.6792" width="77.5352" height="13.4751" filterUnits="userSpaceOnUse" color-interpolation-filters="sRGB">
<feFlood flood-opacity="0" result="BackgroundImageFix"/>
<feColorMatrix in="SourceAlpha" type="matrix" values="0 0 0 0 0 0 0 0 0 0 0 0 0 0 0 0 0 0 127 0" result="hardAlpha"/>
<feOffset dx="2" dy="3"/>
<feComposite in2="hardAlpha" operator="out"/>
<feColorMatrix type="matrix" values="0 0 0 0 0 0 0 0 0 0 0 0 0 0 0 0 0 0 0.4 0"/>
<feBlend mode="normal" in2="BackgroundImageFix" result="effect1_dropShadow_100_7004"/>
<feBlend mode="normal" in="SourceGraphic" in2="effect1_dropShadow_100_7004" result="shape"/>
</filter>
</defs>
</svg>
